<svg width="32" height="31.453" fill="none" xmlns="http://www.w3.org/2000/svg"><path d="M31.215 30.248H.648l.649.51V.565l-.649.51h30.567l-.649-.51V30.76c0 .659 1.3.659 1.3 0V.566c0-.279-.296-.51-.651-.51H.648C.295.055 0 .286 0 .565V30.76c0 .278.295.51.648.51h30.567c.84 0 .84-1.021 0-1.021z" fill="#333"/><path d="M15.35.553v30.382c0 .665 1.302.665 1.302 0V.553c0-.664-1.302-.664-1.302 0z" fill="#FBD846"/><path d="M.652 1.312h30.696c.843 0 .843-1.303 0-1.303H.652c-.843 0-.843 1.303 0 1.303z" fill="#333"/><path d="M31.348 30.15H.652l.65.652V.651l-.65.652h30.696l-.65-.652v30.151c0 .842 1.302.842 1.302 0V.651A.656.656 0 0031.348 0H.652A.656.656 0 000 .651v30.151c0 .355.295.651.652.651h30.696c.843 0 .843-1.304 0-1.304z" fill="#333"/><path d="M17.64 14.34v2.781c0 .842 1.303.842 1.303 0v-2.78c0-.833-1.302-.833-1.302 0zm-4.583 0v2.781c0 .842 1.302.842 1.302 0v-2.78c0-.833-1.302-.833-1.302 0z" fill="#FBD846"/></svg>