<svg width="26.588" height="33.146" viewBox="0 0 26.588 33.147" fill="none" xmlns="http://www.w3.org/2000/svg"><path d="M24.924 17.122v14.1c0 .664-.455 1.175-1.049 1.175H2.755c-.59 0-1.048-.511-1.048-1.175v-14.1m23.083-.051H1.798c-.592 0-1.049-.51-1.049-1.175v-5.261c0-.664.457-1.175 1.049-1.175h22.99c.592 0 1.049.51 1.049 1.175v5.261c0 .665-.457 1.175-1.049 1.175z" stroke="#333" stroke-width="1.5"/><path d="M13.43 9c-1.004-1.124 1.916-6.283 2.92-7.407 1.002-1.124 2.644-1.124 3.693 0 1.004 1.124 1.004 3.013 0 4.137-1.002 1.124-5.564 4.394-6.613 3.27z" stroke="#FBD846" stroke-width="1.5"/><path d="M13.111 9.05c1.004-1.123-1.916-6.282-2.965-7.406C9.143.52 7.5.52 6.496 1.644c-1.002 1.073-1.002 2.912 0 4.086 1.004 1.124 5.611 4.445 6.615 3.32zm-2.965 4.548s.684-2.35 3.33-3.525v22.274m-.183-22.223s1.049 4.087 4.7 4.7" stroke="#FBD846" stroke-width="1.5"/></svg>