<svg width="32.193" height="32.194" fill="none" xmlns="http://www.w3.org/2000/svg"><path d="M32.193 32.194H0V0l32.193 32.194zM3.998 27.696H1v3.498h28.781L1 2.414v8.29h2.998v.998H1v3h1.998v1H1v2.997h2.998v1H1v3h1.998v.998H1v3h2.998v1zm2.5 0V13.994L20.2 27.696H6.498zm11.287-1L7.496 16.407v10.29h10.29z" fill="#333" fill-rule="evenodd"/><path d="M32.176 23.385l-1.235-4.94L12.496 0 8.791 3.705 27.234 22.15l4.942 1.236zM30.8 22.01l-3.055-.764L13.203 6.704l2.293-2.292 14.541 14.543.764 3.056zM12.496 1.413l2.293 2.292-2.293 2.293-2.29-2.293 2.29-2.292z" fill="#FBD846"/></svg>