<svg width="32.193" height="32.194" fill="none" xmlns="http://www.w3.org/2000/svg"><path d="M18.244 16.032c0-.998-.687-1.83-1.611-2.07V8.52a.536.536 0 00-1.072 0v5.442a2.145 2.145 0 00-1.534 1.533h-3.832a.537.537 0 100 1.073h3.832a2.143 2.143 0 002.07 1.61 2.148 2.148 0 002.147-2.146zm-2.146 1.073a1.075 1.075 0 01-1.075-1.073 1.074 1.074 0 111.074 1.073zm0-11.805a.534.534 0 00.535-.535v-.537a.536.536 0 00-1.072 0v.537c0 .297.24.536.537.536zm-.538 22v.537a.536.536 0 101.073 0V27.3a.536.536 0 00-1.072 0zM27.9 16.568a.537.537 0 100-1.073h-.535a.537.537 0 100 1.073h.535zM4.293 15.495a.537.537 0 100 1.073h.535a.537.537 0 100-1.073h-.535z" fill="#000"/><path d="M24.066 8.6a.533.533 0 00.38-.158l.378-.379a.534.534 0 000-.758.535.535 0 00-.758 0l-.378.38a.533.533 0 000 .757c.103.106.24.158.378.158zM7.75 23.62l-.379.38a.533.533 0 000 .758.533.533 0 00.758 0l.379-.38a.534.534 0 000-.758.535.535 0 00-.758 0zm.758-15.935l-.38-.38a.535.535 0 00-.757 0 .534.534 0 000 .758l.379.38a.53.53 0 00.379.157.53.53 0 00.379-.158.533.533 0 000-.757z" fill="#FBD846"/><path d="M16.098 0C7.22 0 0 7.22 0 16.097c0 8.876 7.22 16.097 16.098 16.097 1.918 0 3.797-.336 5.588-.998a.537.537 0 00-.373-1.006c-1.67.618-3.424.931-5.215.931-8.285 0-15.026-6.74-15.026-15.024 0-8.285 6.74-15.024 15.026-15.024 8.283 0 15.023 6.74 15.023 15.024 0 1.793-.314 3.547-.931 5.214a.536.536 0 001.007.374 16.04 16.04 0 00.996-5.588C32.193 7.22 24.973 0 16.098 0z" fill="#000"/><path d="M26.828 22.053v-.591a.536.536 0 00-1.072 0v.594c-.586.119-1.12.43-1.512.894-.328.388-.48.883-.426 1.397.055.525.325 1.012.742 1.337l1.196.93v2.917a1.608 1.608 0 01-1.074-1.51.536.536 0 10-1.073 0 2.69 2.69 0 002.147 2.628v.471a.537.537 0 101.072 0v-.473a2.68 2.68 0 001.514-.895 1.85 1.85 0 00.426-1.397 1.966 1.966 0 00-.743-1.335l-1.197-.931V23.17a1.608 1.608 0 011.074 1.51.537.537 0 101.073 0 2.69 2.69 0 00-2.147-2.628zm.537 5.813c.188.146.31.365.334.6a.776.776 0 01-.178.594c-.185.22-.427.375-.693.468v-2.08l.537.418zm-2.146-3.03a.884.884 0 01-.334-.6.784.784 0 01.177-.593c.188-.22.428-.375.694-.47v2.08l-.537-.417z" fill="#FBD846"/></svg>