<svg width="12.744" height="22" fill="none" xmlns="http://www.w3.org/2000/svg"><path d="M6.371 3.328a2.354 2.354 0 012.352 2.35 2.352 2.352 0 01-2.352 2.35 2.352 2.352 0 01-2.35-2.35 2.353 2.353 0 012.35-2.35zm0 8.027a5.683 5.683 0 005.678-5.677A5.683 5.683 0 006.37 0 5.684 5.684 0 00.693 5.678a5.684 5.684 0 005.678 5.677zm2.299 4.631c1.154-.263 2.27-.72 3.297-1.365a1.664 1.664 0 10-1.773-2.816 7.21 7.21 0 01-7.645 0A1.664 1.664 0 00.778 14.62a10.634 10.634 0 003.296 1.365L.9 19.16a1.663 1.663 0 102.354 2.354l3.117-3.121 3.121 3.12a1.665 1.665 0 002.352-2.353L8.67 15.986z" fill="#99CB38"/></svg>