<svg width="31.658" height="31.634" fill="none" xmlns="http://www.w3.org/2000/svg"><path d="M31.229 2.534H25.31L18.014.154a3.113 3.113 0 00-2.643.34l-4.396 2.824a.431.431 0 00.14.78.432.432 0 00.323-.058l4.396-2.82a2.236 2.236 0 011.914-.242l7.363 2.395c.043.014.088.02.133.02h5.557v7.21h-3.194a.436.436 0 00-.38.232 4.32 4.32 0 01-2.09 1.803v-1.929c.687-.294 1.422-.805 1.89-1.694a.42.42 0 00.047-.161.428.428 0 00-.227-.42.433.433 0 00-.581.178c-.815 1.56-2.844 1.63-2.856 1.63-2.717 0-3.502-1.896-3.533-1.975a.44.44 0 00-.156-.2.434.434 0 00-.244-.076h-4.032a1.136 1.136 0 01-.83-.325 1.135 1.135 0 01-.345-.82 1.15 1.15 0 01.727-1.067 1.14 1.14 0 01.448-.079h4.813a.437.437 0 00.314-.119.402.402 0 00.098-.142.422.422 0 00-.098-.478.438.438 0 00-.314-.12h-4.813a1.998 1.998 0 00-1.443.573 2.001 2.001 0 000 2.862 2.002 2.002 0 001.443.574h3.764c.357.658 1.506 2.25 4.21 2.25a4.5 4.5 0 00.858-.119v6.364a.63.63 0 01-.633.633H1.492a.635.635 0 01-.635-.632V6.333A.638.638 0 011.49 5.7h10.947a.437.437 0 00.315-.119.423.423 0 000-.62.438.438 0 00-.315-.12H1.492A1.496 1.496 0 000 6.333v11.013c.002.395.158.774.44 1.053.279.28.656.438 1.052.439h22.152a1.496 1.496 0 001.493-1.492v-3.8c1.539-.49 2.4-1.6 2.715-2.085h3.377a.426.426 0 00.302-.126.422.422 0 00.127-.303V2.964a.43.43 0 00-.43-.43z" fill="#000"/><path d="M2.91 14.1V9.576a2.296 2.296 0 001.824-1.824h7.33a.43.43 0 000-.858H4.347a.426.426 0 00-.303.126.423.423 0 00-.127.303 1.42 1.42 0 01-.42 1.017 1.436 1.436 0 01-1.016.422.432.432 0 00-.426.426v5.302a.437.437 0 00.126.304.434.434 0 00.304.126 1.435 1.435 0 011.436 1.436.427.427 0 00.125.303.436.436 0 00.305.125h16.44a.437.437 0 00.302-.125.428.428 0 00.127-.304 1.433 1.433 0 011.433-1.435.434.434 0 00.398-.265.434.434 0 00.032-.165v-1.94a.387.387 0 00-.027-.17.4.4 0 00-.092-.145.428.428 0 00-.738.315v1.552a2.31 2.31 0 00-1.194.631 2.3 2.3 0 00-.63 1.193H4.733A2.303 2.303 0 002.91 14.1z" fill="#FBD846"/><path d="M12 10.427h1.033a.426.426 0 00.412-.429.432.432 0 00-.412-.43h-.336v-.276a.46.46 0 00-.027-.17.47.47 0 00-.092-.145.434.434 0 00-.621 0 .423.423 0 00-.12.315v.287a1.346 1.346 0 00-.798 2.346c.262.236.607.36.961.344h.533a.492.492 0 010 .985H11.5a.426.426 0 00-.412.26.416.416 0 000 .338.434.434 0 00.412.26h.338v.277a.426.426 0 00.43.41.43.43 0 00.43-.41v-.29a1.346 1.346 0 001.243-1.425 1.347 1.347 0 00-1.408-1.264H12a.51.51 0 01-.36-.137.501.501 0 01-.15-.354.497.497 0 01.51-.492zm-4.465 1.109a.44.44 0 00-.125.3.42.42 0 00.01.085.385.385 0 00.064.153.321.321 0 00.051.065.442.442 0 00.61 0 .423.423 0 00.125-.303.414.414 0 00-.075-.237.425.425 0 00-.658-.063h-.002zm9.403.541a.338.338 0 00.054.065.428.428 0 00.732-.302.46.46 0 00-.027-.17.473.473 0 00-.091-.146.426.426 0 00-.479-.098.451.451 0 00-.143.098.47.47 0 00-.091.146.46.46 0 00-.028.17.57.57 0 00.008.083c.006.027.016.054.025.08.012.025.024.05.04.074z" fill="#FBD846"/><path d="M27.768 18.581a2.034 2.034 0 00-2.745.211l-2.714 2.935a.427.427 0 00-.125.313.42.42 0 00.136.307.422.422 0 00.317.114.438.438 0 00.302-.15l2.715-2.935a1.17 1.17 0 011.877.229 1.163 1.163 0 01-.12 1.3l-4.725 5.78a2.165 2.165 0 01-1.37.775l-9.15 1.324a3.05 3.05 0 00-1.293.51 3.05 3.05 0 00-.935 1.031l-.25.45H1.27l4.36-6.444a6.143 6.143 0 015.756-2.678 9.785 9.785 0 012.166.479c.476.17.978.259 1.484.26h4.375a1.263 1.263 0 011.266 1.265 1.365 1.365 0 01-1.366 1.366h-4.007a2.81 2.81 0 00-1.797.648l-.942.781a.43.43 0 00.55.661l.939-.781c.35-.29.79-.45 1.244-.45h4.012a2.23 2.23 0 002.224-2.223 2.13 2.13 0 00-2.123-2.124h-4.375a3.605 3.605 0 01-1.197-.212 10.608 10.608 0 00-2.358-.523 6.982 6.982 0 00-6.562 3.049L.107 30.96a.436.436 0 00-.076.218.435.435 0 00.432.456H9.94a.433.433 0 00.373-.225l.376-.674a2.208 2.208 0 011.601-1.106l9.15-1.32a3.018 3.018 0 001.913-1.08l4.726-5.78a2.021 2.021 0 00-.309-2.867h-.003z" fill="#000"/></svg>