<svg width="25.16" height="25.229" viewBox="0 0 25.16 25.23" fill="none" xmlns="http://www.w3.org/2000/svg"><path d="M11.355 21.563l3.288-3.288 5.435 3.79-1.22 1.22a3.123 3.123 0 01-3.104.784c-3.363-1.005-6.385-2.848-9.065-5.527-2.68-2.68-4.523-5.702-5.527-9.065a3.125 3.125 0 01.785-3.104l1.219-1.22 3.79 5.435-3.288 3.288m7.416-4.677a4.29 4.29 0 014.756 4.564l-.043.62m-4.713-8.92c4.813-.538 8.934 3.418 8.596 8.249l-.078 1.121m-8.52-13.747C18.385.27 24.639 6.272 24.125 13.6l-.12 1.7" stroke="#FFF" stroke-width="2"/></svg>