<svg width="21.137" height="12.059" fill="none" xmlns="http://www.w3.org/2000/svg"><path d="M21.023 10.89a1.434 1.434 0 00-.07-.136c-.367-.662-1.068-1.473-2.101-2.434l-.024-.021-.01-.01-.011-.012h-.012c-.469-.447-.766-.748-.89-.902-.23-.293-.28-.592-.155-.893.088-.226.418-.707.99-1.441.301-.389.54-.7.715-.936 1.27-1.687 1.82-2.765 1.652-3.234l-.066-.11c-.045-.066-.158-.126-.342-.18-.183-.056-.418-.065-.703-.028l-3.17.021a.406.406 0 00-.22.006 6.867 6.867 0 00-.143.033l-.055.028-.045.033a.53.53 0 00-.12.115.79.79 0 00-.11.191 17.58 17.58 0 01-1.178 2.477c-.271.455-.52.85-.748 1.184a5.5 5.5 0 01-.572.736 4.003 4.003 0 01-.418.38c-.125.097-.22.136-.285.122-.067-.016-.13-.03-.188-.045a.734.734 0 01-.248-.27 1.188 1.188 0 01-.127-.43 4.962 4.962 0 01-.039-.445c-.002-.125-.002-.3.006-.527.008-.228.012-.383.012-.463 0-.28.005-.582.015-.908l.028-.775c.007-.192.011-.393.011-.606 0-.213-.013-.379-.039-.5a1.78 1.78 0 00-.115-.353.595.595 0 00-.225-.264 1.287 1.287 0 00-.369-.148C11.266.057 10.77.01 10.168.002c-1.363-.016-2.24.072-2.629.264-.154.08-.295.191-.418.33-.133.162-.15.25-.057.263.442.067.752.225.936.475l.066.13c.051.097.104.265.155.507.05.242.084.51.1.804.034.536.034.995 0 1.375-.038.381-.073.678-.106.891a1.766 1.766 0 01-.149.518 2.08 2.08 0 01-.132.242c-.022.03-.04.049-.055.054a.808.808 0 01-.297.055c-.102 0-.227-.05-.373-.152a2.628 2.628 0 01-.457-.424 5.74 5.74 0 01-.535-.754 13.748 13.748 0 01-.615-1.144l-.176-.32a25.7 25.7 0 01-.451-.897c-.192-.393-.36-.772-.506-1.139a.712.712 0 00-.266-.35L4.148.695a.775.775 0 00-.175-.093A1.206 1.206 0 003.72.529L.705.551C.396.55.188.62.078.76L.033.826A.363.363 0 000 1.002c0 .082.021.18.066.297.44 1.035.918 2.033 1.436 2.994.518.96.967 1.736 1.348 2.322.382.586.771 1.14 1.168 1.662.394.52.658.854.785 1 .129.149.23.258.302.33l.276.266c.176.176.435.387.775.633.342.244.721.486 1.135.726a6.12 6.12 0 001.447.583c.55.15 1.086.21 1.606.181h1.265c.258-.021.451-.101.584-.242l.043-.055a.658.658 0 00.084-.203c.026-.092.037-.193.037-.303-.005-.316.018-.6.073-.853.054-.252.117-.444.187-.572a1.446 1.446 0 01.424-.485.876.876 0 01.088-.037c.176-.059.383-.002.621.17.238.172.463.385.672.639.209.254.46.537.754.853.293.315.55.549.77.703l.22.133c.146.088.338.168.572.242.235.073.44.092.617.055l2.817-.045c.28 0 .496-.045.648-.137.155-.091.246-.193.276-.302a.857.857 0 00.006-.375 1.23 1.23 0 00-.079-.291z" fill="#99CB38"/></svg>