<svg width="32.000000" height="31.453125" viewBox="0 0 32 31.4531" fill="none" xmlns="http://www.w3.org/2000/svg" xmlns:xlink="http://www.w3.org/1999/xlink">
	<desc>
			Created with Pixso.
	</desc>
	<defs/>
	<path id="Vector" d="M31.2148 30.248C27.9727 30.248 24.7207 30.248 21.4766 30.248C16.0879 30.248 10.6992 30.248 5.31055 30.248C3.75391 30.248 2.20508 30.248 0.648438 30.248C0.865234 30.418 1.08203 30.5889 1.29688 30.7588C1.29688 28.5811 1.29688 26.4043 1.29688 24.2275C1.29688 19.873 1.29688 15.5186 1.29688 11.165C1.29688 7.90625 1.29688 4.64746 1.29688 1.39453C1.29688 1.11621 1.29688 0.84375 1.29688 0.56543C1.08203 0.735352 0.865234 0.905273 0.648438 1.0752C3.89258 1.0752 7.14453 1.0752 10.3887 1.0752C15.7773 1.0752 21.166 1.0752 26.5527 1.0752C28.1113 1.0752 29.6582 1.0752 31.2148 1.0752C31 0.905273 30.7832 0.735352 30.5664 0.56543C30.5664 2.74219 30.5664 4.91895 30.5664 7.09668C30.5664 11.4502 30.5664 15.8047 30.5664 20.1592C30.5664 23.418 30.5664 26.6768 30.5664 29.9287C30.5664 30.207 30.5664 30.4795 30.5664 30.7588C30.5664 31.418 31.8652 31.418 31.8652 30.7588C31.8652 28.5811 31.8652 26.4043 31.8652 24.2275C31.8652 19.873 31.8652 15.5186 31.8652 11.165C31.8652 7.90625 31.8652 4.64746 31.8652 1.39453C31.8652 1.11621 31.8652 0.84375 31.8652 0.56543C31.8652 0.286133 31.5703 0.0546875 31.2148 0.0546875C27.9727 0.0546875 24.7207 0.0546875 21.4766 0.0546875C16.0879 0.0546875 10.6992 0.0546875 5.31055 0.0546875C3.75391 0.0546875 2.20508 0.0546875 0.648438 0.0546875C0.294922 0.0546875 0 0.286133 0 0.56543C0 2.74219 0 4.91895 0 7.09668C0 11.4502 0 15.8047 0 20.1592C0 23.418 0 26.6768 0 29.9287C0 30.207 0 30.4795 0 30.7588C0 31.0371 0.294922 31.2686 0.648438 31.2686C3.89258 31.2686 7.14453 31.2686 10.3887 31.2686C15.7773 31.2686 21.166 31.2686 26.5527 31.2686C28.1113 31.2686 29.6582 31.2686 31.2148 31.2686C32.0547 31.2686 32.0547 30.248 31.2148 30.248Z" fill="#333333" fill-opacity="1.000000" fill-rule="nonzero"/>
	<path id="Vector" d="M15.3496 0.552734C15.3496 2.74316 15.3496 4.93457 15.3496 7.125C15.3496 11.5068 15.3496 15.8877 15.3496 20.2695C15.3496 23.5488 15.3496 26.8281 15.3496 30.1006C15.3496 30.3809 15.3496 30.6543 15.3496 30.9355C15.3496 31.5996 16.6523 31.5996 16.6523 30.9355C16.6523 28.7451 16.6523 26.5537 16.6523 24.3633C16.6523 19.9814 16.6523 15.6006 16.6523 11.2188C16.6523 7.93945 16.6523 4.66016 16.6523 1.3877C16.6523 1.10742 16.6523 0.833008 16.6523 0.552734C16.6523 -0.111328 15.3496 -0.111328 15.3496 0.552734Z" fill="#FBD846" fill-opacity="1.000000" fill-rule="nonzero"/>
	<path id="Vector" d="M0.652344 1.31152C3.9082 1.31152 7.17383 1.31152 10.4316 1.31152C15.8438 1.31152 21.2559 1.31152 26.666 1.31152C28.2305 1.31152 29.7852 1.31152 31.3477 1.31152C32.1914 1.31152 32.1914 0.00878906 31.3477 0.00878906C28.0918 0.00878906 24.8242 0.00878906 21.5684 0.00878906C16.1562 0.00878906 10.7441 0.00878906 5.33398 0.00878906C3.76953 0.00878906 2.21484 0.00878906 0.652344 0.00878906C-0.191406 0.00878906 -0.191406 1.31152 0.652344 1.31152Z" fill="#333333" fill-opacity="1.000000" fill-rule="nonzero"/>
	<path id="Vector" d="M31.3477 30.1494C28.0918 30.1494 24.8242 30.1494 21.5684 30.1494C16.1562 30.1494 10.7441 30.1494 5.33398 30.1494C3.76953 30.1494 2.21484 30.1494 0.652344 30.1494C0.869141 30.3672 1.08594 30.584 1.30273 30.8018C1.30273 27.4922 1.30273 24.1914 1.30273 20.8818C1.30273 15.5137 1.30273 10.1455 1.30273 4.77734C1.30273 3.40527 1.30273 2.03223 1.30273 0.651367C1.08594 0.868164 0.869141 1.08594 0.652344 1.30273C3.9082 1.30273 7.17578 1.30273 10.4316 1.30273C15.8438 1.30273 21.2559 1.30273 26.666 1.30273C28.2305 1.30273 29.7852 1.30273 31.3477 1.30273C31.1309 1.08594 30.9141 0.868164 30.6973 0.651367C30.6973 3.96094 30.6973 7.26172 30.6973 10.5713C30.6973 15.9395 30.6973 21.3076 30.6973 26.6758C30.6973 28.0479 30.6973 29.4199 30.6973 30.8018C30.6973 31.6436 32 31.6436 32 30.8018C32 27.4922 32 24.1914 32 20.8818C32 15.5137 32 10.1455 32 4.77734C32 3.40527 32 2.03223 32 0.651367C32 0.294922 31.7051 0 31.3477 0C28.0918 0 24.8242 0 21.5684 0C16.1562 0 10.7441 0 5.33398 0C3.76953 0 2.21484 0 0.652344 0C0.294922 0 0 0.294922 0 0.651367C0 3.96094 0 7.26172 0 10.5713C0 15.9395 0 21.3076 0 26.6758C0 28.0479 0 29.4199 0 30.8018C0 31.1572 0.294922 31.4531 0.652344 31.4531C3.9082 31.4531 7.17578 31.4531 10.4316 31.4531C15.8438 31.4531 21.2559 31.4531 26.666 31.4531C28.2305 31.4531 29.7852 31.4531 31.3477 31.4531C32.1914 31.4531 32.1914 30.1494 31.3477 30.1494Z" fill="#333333" fill-opacity="1.000000" fill-rule="nonzero"/>
	<path id="Vector" d="M17.6406 14.3408C17.6406 15.2705 17.6406 16.1914 17.6406 17.1211C17.6406 17.9629 18.9434 17.9629 18.9434 17.1211C18.9434 16.1914 18.9434 15.2705 18.9434 14.3408C18.9434 13.5078 17.6406 13.5078 17.6406 14.3408Z" fill="#FBD846" fill-opacity="1.000000" fill-rule="nonzero"/>
	<path id="Vector" d="M13.0566 14.3408C13.0566 15.2705 13.0566 16.1914 13.0566 17.1211C13.0566 17.9629 14.3594 17.9629 14.3594 17.1211C14.3594 16.1914 14.3594 15.2705 14.3594 14.3408C14.3594 13.5078 13.0566 13.5078 13.0566 14.3408Z" fill="#FBD846" fill-opacity="1.000000" fill-rule="nonzero"/>
</svg>
