<svg width="26.587891" height="33.146484" viewBox="0 0 26.5879 33.1465" fill="none" xmlns="http://www.w3.org/2000/svg" xmlns:xlink="http://www.w3.org/1999/xlink">
	<desc>
			Created with Pixso.
	</desc>
	<defs/>
	<path id="Shape" d="M24.9238 17.1221L24.9238 31.2217C24.9238 31.8857 24.4688 32.3965 23.875 32.3965L2.75586 32.3965C2.16406 32.3965 1.70703 31.8857 1.70703 31.2217L1.70703 17.1221" stroke="#333333" stroke-opacity="1.000000" stroke-width="1.500000"/>
	<path id="Shape" d="M24.7891 17.0713L1.79883 17.0713C1.20703 17.0713 0.75 16.5605 0.75 15.8965L0.75 10.6348C0.75 9.9707 1.20703 9.45996 1.79883 9.45996L24.7891 9.45996C25.3809 9.45996 25.8379 9.9707 25.8379 10.6348L25.8379 15.8965C25.8379 16.5605 25.3809 17.0713 24.7891 17.0713Z" stroke="#333333" stroke-opacity="1.000000" stroke-width="1.500000"/>
	<path id="Shape" d="M13.4297 9C12.4258 7.87598 15.3457 2.7168 16.3496 1.59277C17.3516 0.46875 18.9941 0.46875 20.043 1.59277C21.0469 2.7168 21.0469 4.60645 20.043 5.73047C19.041 6.85449 14.4785 10.124 13.4297 9Z" stroke="#FBD846" stroke-opacity="1.000000" stroke-width="1.500000"/>
	<path id="Shape" d="M13.1113 9.05078C14.1152 7.92676 11.1953 2.76758 10.1465 1.64355C9.14258 0.519531 7.5 0.519531 6.49609 1.64355C5.49414 2.7168 5.49414 4.55566 6.49609 5.73047C7.5 6.85449 12.1074 10.1748 13.1113 9.05078Z" stroke="#FBD846" stroke-opacity="1.000000" stroke-width="1.500000"/>
	<path id="Shape" d="M10.1465 13.5977C10.1465 13.5977 10.8301 11.248 13.4766 10.0732L13.4766 32.3467" stroke="#FBD846" stroke-opacity="1.000000" stroke-width="1.500000"/>
	<path id="Shape" d="M13.293 10.124C13.293 10.124 14.3418 14.2109 17.9922 14.8242" stroke="#FBD846" stroke-opacity="1.000000" stroke-width="1.500000"/>
</svg>
