<svg width="21.623047" height="15.496094" viewBox="0 0 21.623 15.4961" fill="none" xmlns="http://www.w3.org/2000/svg" xmlns:xlink="http://www.w3.org/1999/xlink">
	<desc>
			Created with Pixso.
	</desc>
	<defs/>
	<path id="Vector" d="M0 0L0 0.826172L0 14.6699L0 15.4961L21.623 15.4961L21.623 14.6699L21.623 0.826172L21.623 0L0 0ZM13.1992 7.95117L11.2363 9.92383C10.998 10.1445 10.625 10.1445 10.3965 9.93164L8.42383 7.95117L8.44141 7.93359L1.31445 0.720703L20.3125 0.720703L13.1816 7.93555L13.1992 7.95117ZM7.39648 7.93945L0.720703 14.3633L0.720703 1.23438L7.39648 7.93945ZM7.9043 8.45117L9.89453 10.4512C10.1504 10.6895 10.4785 10.8086 10.8066 10.8086C11.1406 10.8086 11.4746 10.6855 11.7383 10.4414L13.7188 8.45117L20.291 14.7754L1.32812 14.7754L7.9043 8.45117ZM14.2266 7.93945L20.9023 1.23242L20.9023 14.3633L14.2266 7.93945Z" fill="#99CB38" fill-opacity="1.000000" fill-rule="nonzero"/>
</svg>
