<svg width="32.193359" height="32.194336" viewBox="0 0 32.1934 32.1943" fill="none" xmlns="http://www.w3.org/2000/svg" xmlns:xlink="http://www.w3.org/1999/xlink">
	<desc>
			Created with Pixso.
	</desc>
	<defs/>
	<path id="Vector" d="M32.1934 32.1943L0 32.1943L0 0L32.1934 32.1943ZM3.99805 27.6963L1 27.6963L1 31.1943L29.7812 31.1943L1 2.41309L1 10.7031L3.99805 10.7031L3.99805 11.7021L1 11.7021L1 14.7012L2.99805 14.7012L2.99805 15.7012L1 15.7012L1 18.6992L3.99805 18.6992L3.99805 19.6992L1 19.6992L1 22.6982L2.99805 22.6982L2.99805 23.6973L1 23.6973L1 26.6963L3.99805 26.6963L3.99805 27.6963ZM6.49805 27.6963L6.49805 13.9941L20.1992 27.6963L6.49805 27.6963ZM17.7852 26.6963L7.49609 16.4072L7.49609 26.6963L17.7852 26.6963Z" fill="#333333" fill-opacity="1.000000" fill-rule="evenodd"/>
	<path id="Vector" d="M32.1758 23.3848L30.9414 18.4443L12.4961 0L8.79102 3.70508L27.2344 22.1494L32.1758 23.3848ZM30.8008 22.0107L27.7461 21.2471L13.2031 6.7041L15.4961 4.41211L30.0371 18.9551L30.8008 22.0107ZM12.4961 1.41309L14.7891 3.70508L12.4961 5.99805L10.2051 3.70508L12.4961 1.41309Z" fill="#FBD846" fill-opacity="1.000000" fill-rule="nonzero"/>
</svg>
