<svg width="32.193359" height="32.194336" viewBox="0 0 32.1934 32.1943" fill="none" xmlns="http://www.w3.org/2000/svg" xmlns:xlink="http://www.w3.org/1999/xlink">
	<desc>
			Created with Pixso.
	</desc>
	<defs/>
	<path id="Vector" d="M18.2441 16.0322C18.2441 15.0342 17.5566 14.2021 16.6328 13.9619L16.6328 8.51953C16.6328 8.22363 16.3926 7.9834 16.0977 7.9834C15.8008 7.9834 15.5605 8.22363 15.5605 8.51953L15.5605 13.9619C14.8105 14.1572 14.2227 14.7451 14.0273 15.4951L10.1953 15.4951C9.89844 15.4951 9.6582 15.7354 9.6582 16.0322C9.6582 16.3291 9.89844 16.5684 10.1953 16.5684L14.0273 16.5684C14.2676 17.4922 15.0996 18.1777 16.0977 18.1777C17.2812 18.1777 18.2441 17.2158 18.2441 16.0322ZM16.0977 17.1055C15.5059 17.1055 15.0234 16.624 15.0234 16.0322C15.0234 15.4404 15.5059 14.959 16.0977 14.959C16.6895 14.959 17.1699 15.4404 17.1699 16.0322C17.1699 16.624 16.6895 17.1055 16.0977 17.1055Z" fill="#000000" fill-opacity="1.000000" fill-rule="nonzero"/>
	<path id="Vector" d="M16.0977 5.30078C16.3926 5.30078 16.6328 5.06152 16.6328 4.76465L16.6328 4.22754C16.6328 3.93164 16.3926 3.69141 16.0977 3.69141C15.8008 3.69141 15.5605 3.93164 15.5605 4.22754L15.5605 4.76465C15.5605 5.06152 15.8008 5.30078 16.0977 5.30078Z" fill="#000000" fill-opacity="1.000000" fill-rule="nonzero"/>
	<path id="Vector" d="M15.5605 27.2998L15.5605 27.8369C15.5605 28.1338 15.8008 28.373 16.0977 28.373C16.3926 28.373 16.6328 28.1338 16.6328 27.8369L16.6328 27.2998C16.6328 27.0039 16.3926 26.7637 16.0977 26.7637C15.8008 26.7637 15.5605 27.0039 15.5605 27.2998Z" fill="#000000" fill-opacity="1.000000" fill-rule="nonzero"/>
	<path id="Vector" d="M27.9004 16.5684C28.1973 16.5684 28.4375 16.3281 28.4375 16.0312C28.4375 15.7354 28.1973 15.4951 27.9004 15.4951L27.3652 15.4951C27.0684 15.4951 26.8281 15.7354 26.8281 16.0312C26.8281 16.3281 27.0684 16.5684 27.3652 16.5684L27.9004 16.5684Z" fill="#000000" fill-opacity="1.000000" fill-rule="nonzero"/>
	<path id="Vector" d="M4.29297 15.4951C3.99609 15.4951 3.75586 15.7354 3.75586 16.0312C3.75586 16.3281 3.99609 16.5684 4.29297 16.5684L4.82812 16.5684C5.125 16.5684 5.36523 16.3281 5.36523 16.0312C5.36523 15.7354 5.125 15.4951 4.82812 15.4951L4.29297 15.4951Z" fill="#000000" fill-opacity="1.000000" fill-rule="nonzero"/>
	<path id="Vector" d="M24.0664 8.59961C24.2031 8.59961 24.3398 8.54785 24.4453 8.44238L24.8242 8.06348C25.0352 7.85352 25.0352 7.51465 24.8242 7.30469C24.6152 7.09473 24.2754 7.09473 24.0664 7.30469L23.6875 7.68457C23.4766 7.89355 23.4766 8.2334 23.6875 8.44238C23.791 8.54785 23.9277 8.59961 24.0664 8.59961Z" fill="#FBD846" fill-opacity="1.000000" fill-rule="nonzero"/>
	<path id="Vector" d="M7.75 23.6201L7.37109 24C7.16016 24.209 7.16016 24.5488 7.37109 24.7578C7.47461 24.8633 7.61133 24.915 7.75 24.915C7.88672 24.915 8.02344 24.8633 8.12891 24.7578L8.50781 24.3789C8.71875 24.1689 8.71875 23.8301 8.50781 23.6201C8.29883 23.4102 7.95898 23.4102 7.75 23.6201Z" fill="#FBD846" fill-opacity="1.000000" fill-rule="nonzero"/>
	<path id="Vector" d="M8.50781 7.68457L8.12891 7.30469C7.91992 7.09473 7.58008 7.09473 7.37109 7.30469C7.16016 7.51465 7.16016 7.85352 7.37109 8.06348L7.75 8.44238C7.85352 8.54785 7.99219 8.59961 8.12891 8.59961C8.26562 8.59961 8.4043 8.54785 8.50781 8.44238C8.71875 8.2334 8.71875 7.89355 8.50781 7.68457Z" fill="#FBD846" fill-opacity="1.000000" fill-rule="nonzero"/>
	<path id="Vector" d="M16.0977 0C7.2207 0 0 7.2207 0 16.0967C0 24.9727 7.2207 32.1943 16.0977 32.1943C18.0156 32.1943 19.8945 31.8584 21.6855 31.1963C21.9629 31.0938 22.1035 30.7852 22.002 30.5078C21.8984 30.2285 21.5918 30.0869 21.3125 30.1904C19.6426 30.8076 17.8887 31.1211 16.0977 31.1211C7.8125 31.1211 1.07227 24.3809 1.07227 16.0967C1.07227 7.8125 7.8125 1.07324 16.0977 1.07324C24.3809 1.07324 31.1211 7.8125 31.1211 16.0967C31.1211 17.8896 30.8066 19.6436 30.1895 21.3115C30.0879 21.5908 30.2285 21.8994 30.5078 22.001C30.7852 22.1064 31.0938 21.9629 31.1973 21.6846C31.8594 19.8965 32.1934 18.0166 32.1934 16.0967C32.1934 7.2207 24.9727 0 16.0977 0Z" fill="#000000" fill-opacity="1.000000" fill-rule="nonzero"/>
	<path id="Vector" d="M26.8281 22.0527L26.8281 21.4619C26.8281 21.166 26.5879 20.9258 26.293 20.9258C25.9961 20.9258 25.7559 21.166 25.7559 21.4619L25.7559 22.0557C25.1699 22.1748 24.6367 22.4854 24.2441 22.9502C23.916 23.3379 23.7637 23.833 23.8184 24.3467C23.873 24.8721 24.1426 25.3594 24.5605 25.6836L25.7559 26.6133L25.7559 29.5312C25.1328 29.3096 24.6816 28.7188 24.6816 28.0205C24.6816 27.7236 24.4414 27.4834 24.1465 27.4834C23.8496 27.4834 23.6094 27.7236 23.6094 28.0205C23.6094 29.3154 24.5332 30.3994 25.7559 30.6494L25.7559 31.1201C25.7559 31.417 25.9961 31.6572 26.293 31.6572C26.5879 31.6572 26.8281 31.417 26.8281 31.1201L26.8281 30.6475C27.4141 30.5283 27.9473 30.2178 28.3418 29.752C28.6699 29.3643 28.8203 28.8682 28.7676 28.3545C28.7109 27.8301 28.4414 27.3428 28.0254 27.0195L26.8281 26.0889L26.8281 23.1709C27.4512 23.3926 27.9023 23.9834 27.9023 24.6816C27.9023 24.9785 28.1426 25.2188 28.4395 25.2188C28.7344 25.2188 28.9746 24.9785 28.9746 24.6816C28.9746 23.3867 28.0508 22.3027 26.8281 22.0527ZM27.3652 27.8662C27.5527 28.0117 27.6758 28.2314 27.6992 28.4658C27.7227 28.6865 27.6602 28.8975 27.5215 29.0596C27.3359 29.2793 27.0938 29.4346 26.8281 29.5283L26.8281 27.4482L27.3652 27.8662ZM25.2188 24.8359C25.0312 24.6904 24.9102 24.4707 24.8848 24.2354C24.8613 24.0156 24.9258 23.8057 25.0625 23.6426C25.25 23.4229 25.4902 23.2676 25.7559 23.1738L25.7559 25.2539L25.2188 24.8359Z" fill="#FBD846" fill-opacity="1.000000" fill-rule="nonzero"/>
</svg>
