<svg width="12.744141" height="22.000000" viewBox="0 0 12.7441 22" fill="none" xmlns="http://www.w3.org/2000/svg" xmlns:xlink="http://www.w3.org/1999/xlink">
	<desc>
			Created with Pixso.
	</desc>
	<defs/>
	<path id="Vector" d="M6.37109 3.32812C7.66797 3.32812 8.72266 4.38281 8.72266 5.67773C8.72266 6.97461 7.66797 8.02734 6.37109 8.02734C5.07617 8.02734 4.02148 6.97461 4.02148 5.67773C4.02148 4.38281 5.07617 3.32812 6.37109 3.32812ZM6.37109 11.3555C9.50391 11.3555 12.0488 8.80859 12.0488 5.67773C12.0488 2.54688 9.50391 0 6.37109 0C3.24023 0 0.693359 2.54688 0.693359 5.67773C0.693359 8.80859 3.24023 11.3555 6.37109 11.3555ZM8.66992 15.9863C9.82422 15.7227 10.9395 15.2656 11.9668 14.6211C12.7422 14.1309 12.9766 13.1035 12.4883 12.3262C11.998 11.5488 10.9727 11.3145 10.1934 11.8047C7.86914 13.2676 4.87305 13.2656 2.54883 11.8047C1.77148 11.3145 0.744141 11.5488 0.255859 12.3262C-0.234375 13.1055 0 14.1309 0.777344 14.6211C1.80273 15.2656 2.91797 15.7227 4.07422 15.9863L0.900391 19.1602C0.25 19.8105 0.25 20.8633 0.900391 21.5137C1.22461 21.8379 1.65039 22 2.07617 22C2.50195 22 2.92773 21.8379 3.25391 21.5137L6.37109 18.3926L9.49219 21.5137C10.1406 22.1621 11.1934 22.1621 11.8438 21.5137C12.4941 20.8633 12.4941 19.8086 11.8438 19.1602C11.8438 19.1602 8.66992 15.9863 8.66992 15.9863Z" fill="#99CB38" fill-opacity="1.000000" fill-rule="nonzero"/>
</svg>
