<svg width="31.658203" height="31.633789" viewBox="0 0 31.6582 31.6338" fill="none" xmlns="http://www.w3.org/2000/svg" xmlns:xlink="http://www.w3.org/1999/xlink">
	<desc>
			Created with Pixso.
	</desc>
	<defs/>
	<path id="Vector" d="M31.2285 2.53418L25.3105 2.53418L18.0137 0.15332C17.5762 0.0107422 17.1113 -0.0332031 16.6543 0.0253906C16.1973 0.0839844 15.7578 0.244141 15.3711 0.493164L10.9746 3.31836C10.9277 3.34863 10.8867 3.3877 10.8535 3.43457C10.8223 3.48047 10.7988 3.53223 10.7871 3.58789C10.7754 3.64258 10.7734 3.69922 10.7832 3.75488C10.7949 3.81055 10.8145 3.86328 10.8457 3.91113C10.875 3.95801 10.916 3.99902 10.9609 4.03125C11.0078 4.06348 11.0605 4.08594 11.1152 4.09863C11.1699 4.11035 11.2266 4.11133 11.2812 4.10156C11.3379 4.0918 11.3906 4.07031 11.4375 4.04004L15.834 1.21973C16.1152 1.03906 16.4316 0.923828 16.7637 0.881836C17.0938 0.839844 17.4316 0.873047 17.748 0.977539L25.1113 3.37305C25.1543 3.38672 25.1992 3.39355 25.2441 3.39355L30.8008 3.39355L30.8008 10.6025L27.6074 10.6025C27.5293 10.6035 27.4512 10.625 27.3848 10.666C27.3184 10.707 27.2637 10.7656 27.2266 10.835C26.7461 11.6484 26.0117 12.2812 25.1367 12.6377L25.1367 10.709C25.8242 10.415 26.5586 9.9043 27.0273 9.01465C27.0527 8.96484 27.0703 8.91016 27.0742 8.85352C27.0801 8.79785 27.0742 8.74121 27.0566 8.68652C27.041 8.63281 27.0137 8.58301 26.9785 8.53906C26.9414 8.49609 26.8984 8.45996 26.8477 8.43359C26.7969 8.40723 26.7422 8.39062 26.6875 8.38574C26.6309 8.37988 26.5742 8.38574 26.5195 8.40234C26.4668 8.41895 26.416 8.44629 26.373 8.48242C26.3281 8.51855 26.293 8.5625 26.2656 8.6123C25.4512 10.1729 23.4219 10.2422 23.4102 10.2422C20.6934 10.2422 19.9082 8.3457 19.877 8.2666C19.8457 8.18555 19.791 8.11621 19.7207 8.06641C19.6484 8.01758 19.5645 7.99121 19.4766 7.99121L15.4453 7.99121C15.291 7.99512 15.1387 7.96875 14.9961 7.91211C14.8535 7.85645 14.7246 7.77344 14.6152 7.66602C14.5059 7.55957 14.418 7.43164 14.3594 7.29102C14.2988 7.15039 14.2695 6.99805 14.2695 6.8457C14.2695 6.69238 14.2988 6.54102 14.3594 6.40039C14.418 6.25977 14.5059 6.13184 14.6152 6.02441C14.7246 5.91797 14.8535 5.83398 14.9961 5.77832C15.1387 5.72266 15.291 5.69629 15.4453 5.7002L20.2578 5.7002C20.3164 5.70215 20.373 5.69336 20.4277 5.67285C20.4824 5.65234 20.5312 5.62109 20.5723 5.58105C20.6152 5.54102 20.6484 5.49219 20.6699 5.43945C20.6934 5.38574 20.7051 5.32812 20.7051 5.27051C20.7051 5.21289 20.6934 5.15527 20.6699 5.10156C20.6484 5.04883 20.6152 5.00098 20.5723 4.96094C20.5312 4.91992 20.4824 4.88867 20.4277 4.86914C20.373 4.84863 20.3164 4.83887 20.2578 4.84082L15.4453 4.84082C15.1777 4.83594 14.9121 4.88379 14.666 4.98242C14.418 5.08105 14.1914 5.22754 14.002 5.41406C13.8125 5.60059 13.6602 5.82422 13.5566 6.06934C13.4531 6.31543 13.4004 6.5791 13.4004 6.8457C13.4004 7.1123 13.4531 7.37598 13.5566 7.62207C13.6602 7.86719 13.8125 8.08984 14.002 8.27637C14.1914 8.46289 14.418 8.61035 14.666 8.70898C14.9121 8.80664 15.1777 8.85547 15.4453 8.84961L19.209 8.84961C19.5664 9.50781 20.7148 11.1006 23.4199 11.1006C23.709 11.0879 23.9961 11.0479 24.2773 10.9814L24.2773 17.3447C24.2773 17.5127 24.2109 17.6738 24.0918 17.792C23.9727 17.9111 23.8125 17.9775 23.6445 17.9775L1.49219 17.9775C1.32422 17.9775 1.16406 17.9111 1.04492 17.793C0.925781 17.6738 0.859375 17.5137 0.857422 17.3457L0.857422 6.33301C0.857422 6.16504 0.925781 6.00391 1.04297 5.88574C1.16211 5.7666 1.32227 5.7002 1.49023 5.7002L12.4375 5.7002C12.4961 5.70215 12.5527 5.69336 12.6074 5.67285C12.6621 5.65234 12.7109 5.62109 12.752 5.58105C12.7949 5.54102 12.8281 5.49219 12.8496 5.43945C12.873 5.38574 12.8848 5.32812 12.8848 5.27051C12.8848 5.21289 12.873 5.15527 12.8496 5.10156C12.8281 5.04883 12.7949 5.00098 12.752 4.96094C12.7109 4.91992 12.6621 4.88867 12.6074 4.86914C12.5527 4.84863 12.4961 4.83887 12.4375 4.84082L1.49219 4.84082C1.0957 4.84277 0.71875 5 0.439453 5.2793C0.158203 5.55957 0.00195312 5.9375 0 6.33301L0 17.3457C0.00195312 17.7412 0.158203 18.1201 0.439453 18.3994C0.71875 18.6787 1.0957 18.8369 1.49219 18.8379L23.6445 18.8379C24.0391 18.8369 24.418 18.6787 24.6973 18.3994C24.9766 18.1201 25.1348 17.7412 25.1367 17.3457L25.1367 13.5469C26.6758 13.0566 27.5371 11.9463 27.8516 11.4609L31.2285 11.4609C31.3418 11.4609 31.4512 11.416 31.5312 11.335C31.6133 11.2549 31.6582 11.1455 31.6582 11.0322L31.6582 2.96387C31.6582 2.84961 31.6133 2.74023 31.5332 2.66016C31.4512 2.5791 31.3418 2.53418 31.2285 2.53418Z" fill="#000000" fill-opacity="1.000000" fill-rule="nonzero"/>
	<path id="Vector" d="M2.91016 14.1006L2.91016 9.5752C3.36133 9.48828 3.77734 9.26855 4.10156 8.94336C4.42773 8.61816 4.64844 8.20312 4.73438 7.75098L12.0645 7.75098C12.1758 7.74609 12.2812 7.69922 12.3574 7.61914C12.4336 7.53906 12.4766 7.43262 12.4766 7.32227C12.4766 7.21094 12.4336 7.10449 12.3574 7.02441C12.2812 6.94434 12.1758 6.89746 12.0645 6.89258L4.3457 6.89258C4.23242 6.89258 4.12305 6.9375 4.04297 7.01855C3.96094 7.09863 3.91602 7.20801 3.91602 7.32227C3.91602 7.51074 3.87891 7.69824 3.80859 7.87207C3.73633 8.04688 3.63086 8.20508 3.49609 8.33887C3.36328 8.47266 3.20508 8.57812 3.03125 8.65137C2.85742 8.72363 2.66992 8.76074 2.48047 8.76074C2.36914 8.76172 2.25977 8.80664 2.18164 8.88672C2.10156 8.96582 2.05664 9.07422 2.05469 9.18652L2.05469 14.4893C2.05469 14.5459 2.06641 14.6016 2.08789 14.6543C2.10938 14.7061 2.14062 14.7539 2.17969 14.793C2.2207 14.833 2.26758 14.8643 2.32031 14.8857C2.37305 14.9082 2.42773 14.9189 2.48438 14.9189C2.86523 14.9189 3.23047 15.0703 3.49805 15.3398C3.76758 15.6094 3.91992 15.9736 3.91992 16.3545C3.91992 16.4111 3.92969 16.4668 3.95117 16.5186C3.97461 16.5713 4.00586 16.6182 4.04492 16.6582C4.08594 16.6982 4.13281 16.7295 4.18555 16.751C4.23633 16.7725 4.29297 16.7832 4.34961 16.7832L20.7891 16.7832C20.8438 16.7832 20.9004 16.7725 20.9531 16.751C21.0039 16.7295 21.0527 16.6982 21.0918 16.6582C21.1328 16.6182 21.1641 16.5713 21.1855 16.5186C21.207 16.4668 21.2188 16.4111 21.2188 16.3545C21.2188 15.9736 21.3691 15.6094 21.6387 15.3398C21.9082 15.0703 22.2715 14.9189 22.6523 14.9189C22.709 14.9189 22.7656 14.9082 22.8164 14.8857C22.8691 14.8643 22.916 14.833 22.957 14.793C22.9961 14.7539 23.0273 14.7061 23.0508 14.6543C23.0723 14.6016 23.082 14.5459 23.082 14.4893L23.082 12.5498C23.0859 12.4912 23.0762 12.4336 23.0547 12.3799C23.0352 12.3252 23.0039 12.2764 22.9629 12.2344C22.9238 12.1924 22.875 12.1592 22.8223 12.1367C22.7676 12.1133 22.7109 12.1016 22.6523 12.1016C22.5957 12.1016 22.5371 12.1133 22.4844 12.1367C22.4316 12.1592 22.3828 12.1924 22.3438 12.2344C22.3027 12.2764 22.2715 12.3252 22.252 12.3799C22.2305 12.4336 22.2207 12.4912 22.2246 12.5498L22.2246 14.1006C21.7715 14.1875 21.3574 14.4082 21.0312 14.7324C20.707 15.0576 20.4863 15.4736 20.4004 15.9248L4.73438 15.9248C4.64844 15.4736 4.42773 15.0576 4.10156 14.7324C3.77734 14.4082 3.36133 14.1875 2.91016 14.1006Z" fill="#FBD846" fill-opacity="1.000000" fill-rule="nonzero"/>
	<path id="Vector" d="M12 10.4268L13.0332 10.4268C13.1445 10.4229 13.25 10.375 13.3262 10.2949C13.4023 10.2148 13.4453 10.1084 13.4453 9.99805C13.4453 9.88672 13.4023 9.78027 13.3262 9.7002C13.25 9.62012 13.1445 9.57324 13.0332 9.56836L12.6973 9.56836L12.6973 9.29199C12.6992 9.23438 12.6895 9.17676 12.6699 9.12207C12.6484 9.06836 12.6172 9.01855 12.5781 8.97656C12.5371 8.93555 12.4883 8.90234 12.4355 8.87891C12.3828 8.85645 12.3242 8.84473 12.2676 8.84473C12.209 8.84473 12.1523 8.85645 12.0977 8.87891C12.0449 8.90234 11.9961 8.93555 11.957 8.97656C11.916 9.01855 11.8848 9.06836 11.8652 9.12207C11.8438 9.17676 11.8359 9.23438 11.8379 9.29199L11.8379 9.5791C11.4844 9.60547 11.1562 9.77051 10.9238 10.0371C10.6914 10.3037 10.5723 10.6514 10.5938 11.0039C10.6152 11.3574 10.7754 11.6885 11.0391 11.9248C11.3008 12.1611 11.6465 12.2852 12 12.2686L12.5332 12.2686C12.6621 12.2686 12.7891 12.3203 12.8809 12.4131C12.9727 12.5049 13.0254 12.6309 13.0254 12.7607C13.0254 12.8916 12.9727 13.0166 12.8809 13.1094C12.7891 13.2021 12.6621 13.2539 12.5332 13.2539L11.5 13.2539C11.4434 13.251 11.3848 13.2607 11.3301 13.2812C11.2773 13.3018 11.2266 13.333 11.1855 13.373C11.1445 13.4131 11.1113 13.4609 11.0879 13.5146C11.0645 13.5674 11.0527 13.625 11.0527 13.6826C11.0527 13.7412 11.0645 13.7979 11.0879 13.8516C11.1113 13.9053 11.1445 13.9531 11.1855 13.9932C11.2266 14.0332 11.2773 14.0645 11.3301 14.085C11.3848 14.1055 11.4434 14.1143 11.5 14.1123L11.8379 14.1123L11.8379 14.3887C11.8418 14.499 11.8887 14.6035 11.9688 14.6807C12.0488 14.7578 12.1562 14.7998 12.2676 14.7998C12.377 14.7998 12.4844 14.7578 12.5645 14.6807C12.6445 14.6035 12.6914 14.499 12.6973 14.3887L12.6973 14.0996C13.0488 14.0732 13.3789 13.9092 13.6113 13.6416C13.8438 13.375 13.9629 13.0273 13.9414 12.6738C13.9199 12.3203 13.7598 11.9893 13.4961 11.7529C13.2324 11.5166 12.8867 11.3936 12.5332 11.4102L12 11.4102C11.9355 11.4121 11.8691 11.4014 11.8066 11.3779C11.7441 11.3545 11.6895 11.3193 11.6406 11.2734C11.5938 11.2275 11.5547 11.1719 11.5293 11.1113C11.5039 11.0508 11.4902 10.9844 11.4902 10.9189C11.4902 10.8525 11.5039 10.7871 11.5293 10.7256C11.5547 10.665 11.5938 10.6104 11.6406 10.5645C11.6895 10.5186 11.7441 10.4824 11.8066 10.459C11.8691 10.4355 11.9355 10.4248 12 10.4268Z" fill="#FBD846" fill-opacity="1.000000" fill-rule="nonzero"/>
	<path id="Vector" d="M7.53516 11.5361C7.45703 11.6162 7.41211 11.7236 7.41016 11.8359C7.41016 11.8643 7.41406 11.8926 7.41992 11.9209C7.42383 11.9473 7.43359 11.9746 7.44336 12C7.45508 12.0264 7.4668 12.0518 7.48438 12.0742C7.49805 12.0977 7.51562 12.1191 7.53516 12.1387C7.55664 12.1592 7.57812 12.1768 7.60156 12.1934C7.625 12.208 7.65039 12.2217 7.67578 12.2314C7.70117 12.2422 7.72852 12.251 7.75586 12.2568C7.78516 12.2627 7.8125 12.2646 7.83984 12.2646C7.95508 12.2646 8.0625 12.2188 8.14453 12.1387C8.16406 12.1191 8.18164 12.0977 8.19727 12.0742C8.21289 12.0508 8.22656 12.0254 8.23828 12C8.24805 11.9736 8.25586 11.9473 8.26172 11.9209C8.26758 11.8926 8.26953 11.8643 8.26953 11.8359C8.26953 11.751 8.24414 11.6689 8.19531 11.5986C8.14844 11.5283 8.08203 11.4736 8.00195 11.4424C7.92383 11.4102 7.83789 11.4023 7.75586 11.4189C7.67188 11.4355 7.5957 11.4766 7.53711 11.5361L7.53516 11.5361Z" fill="#FBD846" fill-opacity="1.000000" fill-rule="nonzero"/>
	<path id="Vector" d="M16.9375 12.0771C16.9531 12.1006 16.9707 12.1221 16.9922 12.1416C17.0352 12.1865 17.0898 12.2217 17.1504 12.2432C17.209 12.2646 17.2734 12.2725 17.3359 12.2666C17.4004 12.2598 17.4609 12.2402 17.5156 12.207C17.5684 12.1748 17.6152 12.1299 17.6504 12.0771C17.666 12.0537 17.6797 12.0293 17.6914 12.0029C17.7012 11.9775 17.7109 11.9502 17.7148 11.9229C17.7207 11.8955 17.7246 11.8682 17.7246 11.8398C17.7266 11.7822 17.7168 11.7246 17.6973 11.6699C17.6758 11.6162 17.6445 11.5664 17.6055 11.5244C17.5645 11.4834 17.5176 11.4502 17.4629 11.4268C17.4102 11.4043 17.3535 11.3926 17.2949 11.3926C17.2363 11.3926 17.1797 11.4043 17.127 11.4268C17.0723 11.4502 17.0254 11.4834 16.9844 11.5244C16.9453 11.5664 16.9141 11.6162 16.8926 11.6699C16.873 11.7246 16.8633 11.7822 16.8652 11.8398C16.8652 11.8682 16.8691 11.8955 16.873 11.9229C16.8789 11.9502 16.8887 11.9766 16.8984 12.0029C16.9102 12.0283 16.9219 12.0537 16.9375 12.0771Z" fill="#FBD846" fill-opacity="1.000000" fill-rule="nonzero"/>
	<path id="Vector" d="M27.7676 18.5811C27.3672 18.2666 26.8633 18.1133 26.3555 18.1523C25.8477 18.1914 25.3711 18.4199 25.0234 18.792L22.3086 21.7275C22.2676 21.7686 22.2363 21.8174 22.2148 21.8711C22.1914 21.9248 22.1816 21.9824 22.1836 22.04C22.1836 22.0977 22.1973 22.1543 22.2207 22.208C22.2441 22.2607 22.2773 22.3076 22.3203 22.3467C22.3633 22.3867 22.4121 22.417 22.4668 22.4365C22.5215 22.4561 22.5801 22.4639 22.6367 22.4609C22.6953 22.457 22.752 22.4424 22.8047 22.416C22.8555 22.3906 22.9023 22.3545 22.9395 22.3105L25.6543 19.376C25.8535 19.1611 26.1289 19.0293 26.4199 19.0068C26.7129 18.9844 27.0039 19.0732 27.2344 19.2539C27.3555 19.3506 27.457 19.4697 27.5312 19.6045C27.6055 19.7402 27.6523 19.8887 27.668 20.043C27.6855 20.1963 27.6699 20.3516 27.627 20.499C27.582 20.6475 27.5098 20.7852 27.4121 20.9053L22.6855 26.6855C22.3418 27.1064 21.8535 27.3828 21.3164 27.46L12.166 28.7842C11.7012 28.8525 11.2598 29.0273 10.873 29.2949C10.4863 29.5615 10.166 29.9141 9.9375 30.3252L9.6875 30.7744L1.27148 30.7744L5.63086 24.3311C6.25586 23.4023 7.12109 22.6621 8.13672 22.1895C9.15039 21.7178 10.2754 21.5322 11.3867 21.6533C12.125 21.7305 12.8516 21.8906 13.5527 22.1318C14.0293 22.3018 14.5312 22.3906 15.0371 22.3926L19.4121 22.3926C19.748 22.3926 20.0703 22.5264 20.3066 22.7637C20.5449 23 20.6777 23.3223 20.6777 23.6572C20.6777 24.0195 20.5332 24.3662 20.2773 24.6221C20.0215 24.8779 19.6738 25.0225 19.3125 25.0225L15.3047 25.0225C14.6484 25.0225 14.0117 25.252 13.5078 25.6709L12.5664 26.4521C12.4805 26.5264 12.4297 26.6299 12.4199 26.7412C12.4121 26.8535 12.4473 26.9639 12.5176 27.0498C12.5898 27.1367 12.6914 27.1914 12.8027 27.2031C12.9141 27.2148 13.0254 27.1826 13.1152 27.1133L14.0547 26.332C14.4043 26.042 14.8457 25.8828 15.2988 25.8828L19.3105 25.8828C19.9004 25.8818 20.4648 25.6475 20.8828 25.2305C21.2988 24.8135 21.5332 24.248 21.5352 23.6592C21.5332 23.0957 21.3105 22.5566 20.9121 22.1582C20.5137 21.7598 19.9746 21.5361 19.4121 21.5352L15.0371 21.5352C14.6289 21.5332 14.2246 21.4609 13.8398 21.3232C13.0762 21.0596 12.2852 20.8838 11.4824 20.7998C10.2148 20.6602 8.93359 20.8711 7.77539 21.4092C6.61914 21.9463 5.63281 22.79 4.91992 23.8486L0.107422 30.96C0.0625 31.0244 0.0371094 31.0996 0.03125 31.1777C0.0273438 31.2568 0.0449219 31.335 0.0800781 31.4043C0.117188 31.4736 0.171875 31.5312 0.240234 31.5723C0.306641 31.6123 0.384766 31.6338 0.462891 31.6338L9.94141 31.6338C10.0176 31.6328 10.0938 31.6113 10.1582 31.5723C10.2246 31.5322 10.2793 31.4766 10.3145 31.4092L10.6895 30.7354C10.8535 30.4404 11.084 30.1875 11.3613 29.9951C11.6387 29.8037 11.957 29.6777 12.291 29.6289L21.4414 28.3096C22.1914 28.2021 22.875 27.8164 23.3535 27.2285L28.0801 21.4482C28.25 21.2412 28.377 21.002 28.4551 20.7441C28.5312 20.4873 28.5566 20.2168 28.5273 19.9502C28.498 19.6836 28.418 19.4248 28.2871 19.1895C28.1582 18.9551 27.9824 18.748 27.7715 18.5811L27.7676 18.5811Z" fill="#000000" fill-opacity="1.000000" fill-rule="nonzero"/>
</svg>
