<svg width="25.160156" height="25.229492" viewBox="0 0 25.1602 25.2295" fill="none" xmlns="http://www.w3.org/2000/svg" xmlns:xlink="http://www.w3.org/1999/xlink">
	<desc>
			Created with Pixso.
	</desc>
	<defs/>
	<path id="Vector" d="M11.3555 21.563L14.6426 18.2749L20.0781 22.0649L18.8574 23.2842C18.0469 24.0962 16.8535 24.3975 15.7539 24.0688C12.3906 23.0635 9.36914 21.2212 6.68945 18.5415C4.00977 15.8618 2.16602 12.8403 1.16211 9.47656C0.833984 8.37646 1.13477 7.18408 1.94727 6.37256L3.16602 5.15332L6.95508 10.5879L3.66797 13.876M11.084 9.19873C13.7461 8.90088 16.0273 11.0903 15.8398 13.7632L15.7969 14.3833M11.084 5.46338C15.8965 4.92529 20.0176 8.88135 19.6797 13.7119L19.6016 14.833M11.082 1.08594C18.3848 0.269531 24.6387 6.27197 24.125 13.6011L24.0059 15.3013" stroke="#FFFFFF" stroke-opacity="1.000000" stroke-width="2.000000"/>
</svg>
