<svg width="22.652344" height="22.716797" viewBox="0 0 22.6523 22.7168" fill="none" xmlns="http://www.w3.org/2000/svg" xmlns:xlink="http://www.w3.org/1999/xlink">
	<desc>
			Created with Pixso.
	</desc>
	<defs/>
	<path id="Vector" d="M10.1777 19.7266L13.2539 16.6523L18.334 20.1953L17.1953 21.3359C16.4355 22.0957 15.3203 22.377 14.293 22.0703C11.1465 21.1309 8.32227 19.4082 5.81641 16.9023C3.31055 14.3965 1.58789 11.5703 0.648438 8.42578C0.339844 7.39648 0.621094 6.28125 1.38086 5.52344L2.52148 4.38281L6.06445 9.46484L2.99023 12.5391M9.92383 8.16602C12.4141 7.88672 14.5469 9.93359 14.373 12.4336L14.332 13.0137M9.92383 4.67188C14.4238 4.16992 18.2793 7.86914 17.9629 12.3867L17.8887 13.4336M9.92383 0.580078C16.752 -0.183594 22.6016 5.42773 22.1191 12.2812L22.0078 13.8711" stroke="#99CB38" stroke-opacity="1.000000" stroke-width="1.000000"/>
</svg>
