<svg width="21.136719" height="12.058594" viewBox="0 0 21.1367 12.0586" fill="none" xmlns="http://www.w3.org/2000/svg" xmlns:xlink="http://www.w3.org/1999/xlink">
	<desc>
			Created with Pixso.
	</desc>
	<defs/>
	<path id="Vector" d="M21.0234 10.8906C20.998 10.8359 20.9746 10.7891 20.9531 10.7539C20.5859 10.0918 19.8848 9.28125 18.8516 8.32031L18.8281 8.29883L18.8184 8.28906L18.8066 8.27734L18.7949 8.27734C18.3262 7.83008 18.0293 7.5293 17.9043 7.375C17.6758 7.08203 17.625 6.7832 17.75 6.48242C17.8379 6.25586 18.168 5.77539 18.7402 5.04102C19.041 4.65234 19.2793 4.3418 19.4551 4.10547C20.7246 2.41797 21.2754 1.33984 21.1074 0.871094L21.041 0.761719C20.9961 0.695312 20.8828 0.634766 20.6992 0.580078C20.5156 0.525391 20.2812 0.515625 19.9961 0.552734L16.8262 0.574219C16.7754 0.556641 16.7012 0.556641 16.6055 0.580078C16.5098 0.601562 16.4629 0.613281 16.4629 0.613281L16.4082 0.640625L16.3633 0.673828C16.3281 0.695312 16.2871 0.734375 16.2422 0.789062C16.1992 0.84375 16.1621 0.908203 16.1328 0.980469C15.7891 1.86914 15.3965 2.69531 14.9551 3.45703C14.6836 3.91211 14.4355 4.30664 14.207 4.64062C13.9805 4.97461 13.7891 5.2207 13.6348 5.37695C13.4805 5.53516 13.3418 5.66211 13.2168 5.75781C13.0918 5.85352 12.9961 5.89258 12.9316 5.87891C12.8652 5.86328 12.8027 5.84961 12.7441 5.83398C12.6406 5.76758 12.5586 5.67773 12.4961 5.56445C12.4336 5.45117 12.3906 5.30859 12.3691 5.13477C12.3477 4.96289 12.334 4.81445 12.3301 4.68945C12.3281 4.56445 12.3281 4.38867 12.3359 4.16211C12.3438 3.93359 12.3477 3.7793 12.3477 3.69922C12.3477 3.41992 12.3535 3.11719 12.3633 2.79102C12.375 2.46484 12.3848 2.20703 12.3906 2.01562C12.3984 1.82422 12.4023 1.62305 12.4023 1.41016C12.4023 1.19727 12.3887 1.03125 12.3633 0.910156C12.3379 0.789062 12.2988 0.671875 12.248 0.556641C12.1973 0.443359 12.1211 0.355469 12.0234 0.292969C11.9238 0.230469 11.8008 0.181641 11.6543 0.144531C11.2656 0.0566406 10.7695 0.00976562 10.168 0.00195312C8.80469 -0.0136719 7.92773 0.0742188 7.53906 0.265625C7.38477 0.345703 7.24414 0.457031 7.12109 0.595703C6.98828 0.757812 6.9707 0.845703 7.06445 0.859375C7.50586 0.925781 7.81641 1.08398 8 1.33398L8.06641 1.46484C8.11719 1.56055 8.16992 1.72852 8.2207 1.9707C8.27148 2.21289 8.30469 2.48047 8.32031 2.77539C8.35547 3.31055 8.35547 3.76953 8.32031 4.15039C8.2832 4.53125 8.24805 4.82812 8.21484 5.04102C8.18164 5.25391 8.13281 5.42773 8.06641 5.55859C8 5.69141 7.95703 5.77148 7.93359 5.80078C7.91211 5.83008 7.89453 5.84961 7.87891 5.85547C7.7832 5.89258 7.68555 5.91016 7.58203 5.91016C7.48047 5.91016 7.35547 5.85938 7.20898 5.75781C7.06055 5.6543 6.91016 5.51367 6.75195 5.33398C6.59375 5.1543 6.41602 4.90234 6.2168 4.58008C6.01953 4.25586 5.81445 3.875 5.60156 3.43555L5.42578 3.11523C5.31445 2.91016 5.16602 2.61133 4.97461 2.21875C4.7832 1.82617 4.61523 1.44727 4.46875 1.08008C4.41016 0.925781 4.32227 0.808594 4.20312 0.728516L4.14844 0.695312C4.11133 0.666016 4.05273 0.634766 3.97266 0.601562C3.89258 0.568359 3.80859 0.544922 3.7207 0.529297L0.705078 0.550781C0.396484 0.550781 0.1875 0.621094 0.078125 0.759766L0.0332031 0.826172C0.0117188 0.863281 0 0.921875 0 1.00195C0 1.08398 0.0214844 1.18164 0.0664062 1.29883C0.505859 2.33398 0.984375 3.33203 1.50195 4.29297C2.01953 5.25391 2.46875 6.0293 2.84961 6.61523C3.23242 7.20117 3.62109 7.75586 4.01758 8.27734C4.41211 8.79688 4.67578 9.13086 4.80273 9.27734C4.93164 9.42578 5.0332 9.53516 5.10547 9.60742L5.38086 9.87305C5.55664 10.0488 5.81641 10.2598 6.15625 10.5059C6.49805 10.75 6.87695 10.9922 7.29102 11.2324C7.70508 11.4707 8.1875 11.6641 8.73828 11.8145C9.28711 11.9648 9.82422 12.0254 10.3438 11.9961L11.6094 11.9961C11.8672 11.9746 12.0605 11.8945 12.1934 11.7539L12.2363 11.6992C12.2676 11.6562 12.2949 11.5879 12.3203 11.4961C12.3457 11.4043 12.3574 11.3027 12.3574 11.1934C12.3516 10.877 12.375 10.5938 12.4297 10.3398C12.4844 10.0879 12.5469 9.89648 12.6172 9.76758C12.6875 9.64062 12.7656 9.53125 12.8535 9.44336C12.9414 9.35547 13.0039 9.30273 13.041 9.2832C13.0781 9.26562 13.1074 9.25391 13.1289 9.24609C13.3047 9.1875 13.5117 9.24414 13.75 9.41602C13.9883 9.58789 14.2129 9.80078 14.4219 10.0547C14.6309 10.3086 14.8828 10.5918 15.1758 10.9082C15.4688 11.2227 15.7266 11.457 15.9453 11.6113L16.166 11.7441C16.3125 11.832 16.5039 11.9121 16.7383 11.9863C16.9727 12.0586 17.1777 12.0781 17.3555 12.041L20.1719 11.9961C20.4512 11.9961 20.668 11.9512 20.8203 11.8594C20.9746 11.7676 21.0664 11.666 21.0957 11.5566C21.125 11.4473 21.127 11.3223 21.1016 11.1816C21.0762 11.043 21.0508 10.9453 21.0234 10.8906Z" fill="#99CB38" fill-opacity="1.000000" fill-rule="nonzero"/>
</svg>
